<svg width="376" height="287" viewBox="0 0 376 287" fill="none" xmlns="http://www.w3.org/2000/svg">
<g clip-path="url(#clip0)">
<path d="M297.745 153.854C297.852 154.551 297.96 155.302 298.013 155.999C298.067 157.233 297.906 158.413 297.531 159.594C297.102 160.935 296.727 162.276 296.405 163.51H290.617C290.563 162.705 290.509 161.847 290.456 161.042C290.188 158.092 289.866 155.141 289.384 152.244C289.169 151.01 288.955 149.723 288.687 148.489C288.473 147.309 288.205 146.182 287.937 145.056C276.252 96.5609 231.014 60.3506 177.147 60.3506C116.579 60.3506 66.9461 106.11 63.6229 163.51H55.583C57.1374 134.434 69.6261 107.29 91.1194 86.583C114.114 64.4813 144.665 52.2502 177.147 52.2502C209.628 52.2502 240.179 64.4276 263.174 86.583C282.255 104.983 294.261 128.426 297.745 153.854Z" fill="#EDEDED"/>
<path d="M298.71 163.51H298.281C298.388 163.08 298.496 162.651 298.603 162.168C298.656 162.651 298.656 163.08 298.71 163.51Z" fill="#EDEDED"/>
<path d="M239.804 260.768C221.848 272.248 200.301 278.9 177.146 278.9C153.991 278.9 132.444 272.194 114.488 260.768H100.499C122.1 277.72 148.899 286.947 177.146 286.947C205.393 286.947 232.193 277.72 253.793 260.768H239.804Z" fill="#EDEDED"/>
<path d="M263.388 31.9188L263.227 31.4896C262.048 28.7538 260.44 24.9986 256.474 22.4237C255.187 21.619 253.955 20.4388 252.936 19.044C251.596 17.2738 249.345 14.8597 246.236 13.3577C244.521 12.553 242.967 11.4801 241.198 10.139C239.858 8.95881 234.98 5.04273 227.477 5.04273C225.493 5.04273 223.51 5.31095 221.527 5.8474C217.989 2.89693 213.755 1.34123 209.199 1.34123H209.092H208.931C206.037 1.34123 203.089 1.01936 199.98 0.64385C196.925 0.321981 193.709 -0.0535329 190.439 -0.107178C190.225 -0.107178 190.011 -0.107178 189.85 -0.107178C185.133 -0.107178 180.899 0.590205 176.932 2.09226C175.968 2.46778 175.217 2.95058 174.628 3.48703C173.395 3.64796 172.269 3.8089 171.251 3.8089C170.822 3.8089 170.447 3.8089 170.072 3.75525C169.321 3.64796 168.571 3.59432 167.874 3.59432C162.139 3.59432 158.012 7.08123 156.565 13.1431C155.814 16.2009 154.689 18.4003 152.866 20.1706C149.972 23.0138 147.935 26.2325 146.005 29.3439C145.63 29.9339 145.255 30.5777 144.826 31.1678C142.575 34.6547 142.2 38.4635 141.932 41.5212C141.771 43.0233 141.664 44.4717 141.342 45.6519C141.021 46.8857 141.128 48.1732 141.61 49.2997C141.557 51.4455 141.932 53.3231 142.414 54.9325C142.146 55.147 141.878 55.3616 141.557 55.6298C138.448 58.1511 134.91 61.048 132.338 65.4468C131.909 66.1442 131.694 66.9489 131.587 67.7536L131.534 68.7192L131.48 69.6311C131.373 70.865 131.748 72.0988 132.445 73.1181C131.962 75.2639 130.89 81.1111 134.535 86.2611C135.5 87.6022 136.197 89.2652 136.947 91.1427L137.108 91.4646V91.5183C137.43 92.2693 137.858 93.3422 138.609 94.3614C140.378 96.7754 144.076 101.818 150.883 102.408C151.151 102.408 151.419 102.462 151.687 102.462C153.724 102.462 155.332 101.818 156.618 101.228C159.566 102.408 162.675 103.374 166.052 103.374C166.373 103.374 166.641 103.374 166.963 103.374C165.73 108.899 166.159 114.478 166.963 119.843C167.338 122.471 169.589 124.403 172.216 124.456C172.43 124.456 172.591 124.456 172.805 124.456C178.755 124.456 184.543 123.705 190.064 123.008C195.103 122.364 220.669 119.682 223.028 119.682C226.351 119.682 229.621 118.984 232.193 117.697C232.622 117.482 232.997 117.214 233.373 116.892C233.694 116.946 234.069 117 234.445 117C235.034 117 235.677 116.892 236.267 116.678C239.858 115.39 246.558 112.976 248.595 105.573C249.667 101.657 250.096 98.1166 249.828 94.7369C249.56 91.1964 248.916 87.7631 247.898 84.4908C249.613 82.7741 250.846 80.7356 251.596 78.3753C253.204 73.3863 254.866 69.4166 256.849 65.9296C259.207 61.8526 261.619 57.4001 263.442 52.6257C266.068 45.1691 266.122 38.2489 263.388 31.9188Z" fill="#EDEDED"/>
<path d="M237.714 14.3234C239.697 15.8254 241.627 17.2202 243.931 18.2931C245.754 19.1514 247.362 20.6534 248.594 22.3164C249.988 24.194 251.65 25.8034 253.526 26.9835C256.259 28.7538 257.278 31.4361 258.457 34.0647C260.815 39.5901 260.386 45.1692 258.296 50.6946C256.634 55.0935 254.383 59.1705 252.078 63.2475C249.666 67.4854 247.844 72.0452 246.343 76.7123C245.807 78.3753 244.95 79.7701 243.663 80.8966C242.162 82.2378 241.841 83.7398 242.43 85.6174C243.449 88.6751 244.038 91.8402 244.253 95.0589C244.467 98.1166 243.985 101.228 243.181 104.071C242.002 108.416 238.143 110.133 234.23 111.528C238.732 108.256 241.251 103.91 241.573 98.4385C241.895 93.2886 241.787 88.1387 238.732 83.3643C237.071 83.2034 235.302 83.5252 233.587 82.5596C231.603 81.3794 229.888 80.092 228.602 78.1607C227.476 76.4441 226.243 74.7275 225.011 73.0645C223.885 71.5088 223.992 69.5239 223.349 67.8073C222.384 65.286 221.473 62.6574 221.366 59.9215C221.366 59.2241 220.776 59.1705 220.455 58.9022C220.401 56.971 222.867 55.2007 220.508 53.3768C220.562 53.1622 220.616 52.9477 220.669 52.7867C221.527 46.2957 222.867 39.751 219.061 33.5819C218.364 32.4017 217.936 31.0069 217.239 29.8267C216.488 28.5929 215.792 27.5736 214.076 28.0028C213.54 28.1637 213.004 27.9491 212.736 27.4127C212.736 26.6617 213.594 27.1981 213.808 26.5007C211.557 23.8185 211.075 20.5462 211.504 17.0056C211.718 15.1817 210.378 14.377 208.341 14.9671C207.698 17.0056 208.931 18.7759 209.306 20.7071C209.681 22.6919 211.772 23.8185 212.254 25.857C209.896 24.7841 206.519 18.7759 205.983 14.8062C204.16 13.3041 203.303 13.3577 201.695 15.289C201.588 17.2202 202.767 18.6686 203.678 20.2779C201.749 19.7951 201.052 18.454 200.462 14.5916C199.39 13.8405 198.157 14.8062 197.032 14.1088C200.301 13.7869 203.357 11.6948 206.948 13.5187C209.252 12.1776 211.45 12.5531 213.112 14.6989C215.256 15.1817 216.328 13.8942 217.56 12.4994C214.559 10.0318 211.45 7.99326 207.43 8.47606C204.214 8.85158 201.213 8.0469 198.104 7.5641C191.189 6.59849 184.275 6.16933 177.682 9.44167C175.056 10.7828 172.162 10.9437 169.267 10.5682C166.105 10.1391 164.283 11.6948 163.425 15.6108C165.087 12.5531 167.552 11.3729 171.143 11.963C165.73 16.4155 160.531 20.8144 157.154 27.1445C159.512 28.1101 162.085 28.1101 163.264 30.7387C162.299 30.846 161.763 30.3632 161.227 30.0949C158.172 28.7002 155.278 29.5585 153.295 32.2407C150.079 36.6396 148.953 41.4677 149.811 46.8321C150.079 48.6561 150.507 50.2654 152.062 51.3383C152.544 51.6602 152.651 52.1966 152.973 52.7331C154.313 51.5529 155.707 50.48 156.939 48.9243C152.223 47.5295 154.152 43.7744 153.723 40.7166C155.707 39.1073 158.065 39.9656 160.584 40.0192C159.673 38.3026 158.119 37.7125 156.832 36.8542C157.207 36.1568 157.69 36.4787 158.065 36.6396C162.835 38.9463 163.907 42.8624 160.852 47.6368C157.851 52.3039 153.723 56.1127 149.167 59.385C147.024 60.9407 144.933 62.6037 142.575 64.4277C144.451 64.9641 146.005 64.7495 147.452 64.4813C150.132 63.9985 152.651 64.3204 155.171 65.2323C158.065 66.3052 159.673 69.6849 158.601 72.5817C157.315 76.015 154.527 78.268 151.955 80.6284C154.956 81.1649 157.797 82.1305 160.477 83.9007C164.015 86.2075 167.981 87.6559 172.376 87.7095C172.912 87.7095 173.555 87.4949 174.252 88.1923C171.358 89.3189 168.678 88.4606 165.837 87.9241C167.445 89.3189 167.445 89.3189 172.001 89.8553C171.518 90.3918 170.822 90.0699 170.286 90.2845C169.803 90.4991 169.214 90.0163 168.678 90.4991C171.411 92.323 174.198 91.3574 177.254 90.66C175.86 92.323 174.038 92.1084 172.43 92.6449C173.448 93.2349 173.448 93.2886 174.52 93.1813C175.324 93.1277 176.074 93.0204 177.093 92.9667C176.61 94.1469 175.538 93.6105 174.895 94.0396C177.629 96.1854 179.505 96.4 183.15 94.8443C183.793 94.737 183.31 95.5953 184.114 95.649C184.436 95.5953 185.079 95.5417 185.722 95.488C186.151 96.1318 185.026 96.0245 185.186 96.4C188.992 97.0974 192.047 95.5417 194.941 93.4495C195.424 93.986 194.513 94.2542 194.888 94.8443C199.873 91.7329 199.926 85.832 202.553 81.3258C201.909 82.7742 203.089 84.0617 202.767 85.4564C202.499 86.7976 202.231 88.1923 201.909 89.8553C203.303 89.2116 203.089 88.085 203.464 87.1194C204.107 88.4606 203.464 89.6407 203.41 90.8746C204.696 89.748 204.643 88.1923 205.018 86.7976C206.519 88.7824 206.304 90.6064 203.946 95.3807C204.375 95.5953 204.482 95.0589 204.911 95.1125C205.232 95.7563 204.107 96.1318 204.536 96.8292C205.286 97.151 205.822 96.2391 206.626 96.4C206.412 97.312 205.125 98.0093 206.036 99.0286C206.572 99.4041 206.894 98.6531 207.376 98.9213C207.591 100.048 206.733 100.692 206.197 101.389C206.519 102.462 207.108 102.086 207.591 101.711C207.912 102.462 207.001 102.891 207.376 103.642C208.502 104.071 209.092 102.676 210.164 102.569C209.842 104.018 208.02 104.339 207.859 105.841C209.145 106.163 209.199 104.769 210.217 104.554C210.003 105.573 209.092 106.056 208.824 106.807C208.556 107.344 209.252 107.612 209.145 108.148C208.877 108.095 208.663 108.148 208.556 108.041C207.644 107.451 207.055 106.593 206.572 105.573C205.5 103.213 204.375 100.853 203.196 98.4921C202.821 97.7948 202.499 97.0437 201.534 96.6682C200.677 96.6682 199.819 96.9364 198.854 97.5265C201.749 103.374 203.196 109.597 204.536 116.302C193.655 116.463 183.15 119.145 172.108 119.092C171.036 111.581 170.714 104.393 174.842 97.6875C174.145 96.8828 173.18 96.7755 172.162 96.1854C166.855 99.6723 161.549 97.7411 156.35 95.4344C154.635 96.1318 153.187 97.3656 151.258 97.2047C147.345 96.8828 144.987 94.2542 142.896 91.3574C142.521 90.8209 142.253 90.1772 141.985 89.5871C141.074 87.4413 140.216 85.2955 138.823 83.3643C136.893 80.6284 136.947 77.4634 137.644 74.2447C138.072 72.1525 138.019 71.777 136.732 70.2213C136.786 69.4166 136.84 68.612 136.893 68.3437C139.895 63.2475 144.665 60.5116 148.524 56.8637C147.774 54.1815 146.488 51.7675 146.97 48.6024C147.881 50.8019 147.774 53.0549 149.167 54.8789C149.275 52.143 147.613 47.3149 146.38 47.3149C147.56 42.9697 146.702 38.1953 149.167 34.3329C151.419 30.846 153.455 27.1981 156.457 24.2477C159.191 21.5654 160.745 18.2931 161.603 14.6452C162.567 10.5682 165.033 8.74429 169.16 9.33438C171.947 9.70989 174.627 9.1198 177.468 8.85158C177.682 8.42242 177.79 7.77868 178.647 7.45681C182.399 6.06204 186.205 5.57924 190.225 5.63288C196.496 5.68653 202.66 7.0813 208.984 7.0813C212.415 7.0813 215.684 8.31513 218.364 10.6755C219.276 11.4802 220.348 12.1776 221.473 11.802C231.335 8.0469 237.714 14.3234 237.714 14.3234ZM216.542 24.0331C219.329 27.6273 222.652 30.6314 224.099 35.1376C225.547 39.4828 225.547 44.0426 226.458 48.4415C227.798 46.0811 226.083 43.2916 227.262 40.9849C228.012 41.0385 228.173 41.3067 228.227 41.7895C228.655 47.4759 228.602 53.1622 227.691 58.7949C227.315 61.209 227.851 63.5693 227.744 66.1979C227.637 66.5198 226.726 66.4662 226.672 67.4318C228.28 71.1333 228.655 75.7467 232.783 78.4826C233.319 76.2832 232.354 74.0301 233.158 71.6161C234.337 72.9035 233.694 74.2447 233.962 75.4249C234.23 76.4978 233.533 77.8389 234.498 78.7508C235.141 76.4441 234.176 74.0837 235.195 71.8306C236.106 73.8691 235.409 76.1759 236.106 78.4826C237.017 76.8196 235.463 75.1566 236.91 73.44C237.821 75.5321 237.178 77.4097 237.553 79.1264C236.749 79.7701 235.731 79.18 235.141 80.2529C237.714 80.5748 239.804 79.7701 241.68 78.268C243.931 76.3905 245.057 73.8155 245.968 71.1333C246.558 69.363 246.879 67.3781 247.683 65.8224C249.827 61.7454 251.864 57.6148 254.222 53.6987C256.902 49.2462 258.135 44.6863 257.814 39.6437C257.653 36.3714 256.742 33.4209 254.437 30.846C252.936 29.183 251.221 27.6273 249.72 25.9106C247.844 23.8185 245.968 21.7263 243.449 20.3316C240.447 18.6686 237.714 16.6837 235.034 14.4843C232.407 12.2848 229.406 11.4802 226.029 12.5531C225.011 12.8749 223.939 12.9822 222.92 13.3041C221.205 13.8405 219.168 13.3577 217.4 15.0744C221.634 18.0785 224.635 22.0482 228.012 25.7497C226.619 25.1596 225.439 24.194 224.421 23.1211C222.277 20.868 220.133 18.7222 217.56 17.0056C216.756 16.4691 215.899 15.8254 214.827 16.0936C212.522 18.6149 212.468 21.6727 214.612 24.194C215.202 24.1404 215.792 24.0867 216.542 24.0331ZM183.364 116.302C185.722 109.221 185.937 111.689 182.614 100.316C180.791 99.6723 178.862 99.0286 176.986 98.3849C175.056 102.301 173.502 106.056 173.555 110.294C173.609 112.601 173.448 115.015 175.378 116.785C177.039 116.678 178.647 117.107 180.202 117.482C181.327 117.053 182.399 116.678 183.364 116.302ZM191.35 116.141C192.744 115.229 192.905 113.191 194.459 112.44C194.298 108.309 193.869 104.5 191.993 100.799C189.689 101.979 187.384 100.96 184.918 101.55C187.33 105.788 187.223 110.401 187.92 115.122C189.474 114.425 189.742 116.624 191.35 116.141ZM150.829 83.2034C150.615 88.5678 154.259 91.4647 158.065 93.9323C162.031 96.4536 167.391 96.5609 170.018 94.8443C169.106 94.1469 168.195 95.1125 167.338 94.8443C167.338 94.1469 168.41 94.6297 168.302 93.825C167.016 92.5912 165.14 93.986 163.586 93.0204C164.551 92.3766 165.623 93.074 166.48 92.4303C165.194 90.9819 163.8 91.8938 162.567 92.0011C161.495 91.6793 160.531 90.8746 159.566 91.0892C156.886 87.9241 153.509 85.9929 150.829 83.2034ZM140.431 68.7192C146.273 68.3437 152.33 67.1099 157.315 72.0989C157.315 68.6656 155.599 66.3052 152.866 65.8761C149.114 65.2323 145.416 65.6078 141.717 66.5198C140.86 66.7344 140.056 67.1099 140.431 68.7192ZM141.985 77.3561C139.573 80.5748 144.183 92.7521 148.363 93.825C145.898 90.5527 146.488 86.9049 146.005 83.3643C142.468 82.8815 143.968 79.1264 141.985 77.3561ZM149.65 71.3478C152.223 70.9723 152.973 73.8155 155.224 74.7275C153.402 70.3286 148.578 68.3974 144.612 70.1677C144.826 71.0796 144.772 72.0452 145.523 72.689C146.541 72.3135 145.63 71.0796 146.648 70.865C147.881 71.3478 146.38 72.0989 146.809 72.689C147.399 73.0108 147.613 71.9379 148.203 72.2062C148.846 72.3671 148.685 73.3327 149.435 73.44C150.025 72.8499 148.953 71.9379 149.65 71.3478Z" fill="#4D596A"/>
<path d="M200.999 48.2806C200.838 48.2806 200.623 48.3342 200.57 48.2806C197.675 45.491 194.567 47.1004 191.619 48.0123C189.957 48.4951 188.832 48.6024 187.813 47.154C187.599 46.8858 187.17 46.7249 186.902 46.5639C186.044 46.4566 185.723 47.315 185.133 47.154C184.704 47.6368 185.133 48.2269 184.597 48.6024C183.579 48.817 182.936 48.3342 182.668 47.3686C182.185 45.5447 184.49 40.6094 186.152 39.8583C187.17 39.3755 188.296 39.751 189.314 39.8047C194.245 40.0729 197.836 42.5406 200.409 46.6176C200.623 46.9394 200.784 47.315 200.891 47.6905C200.999 47.9051 200.999 48.1196 200.999 48.2806Z" fill="#4D596A"/>
<path d="M227.745 104.661C227.745 104.071 226.941 104.393 226.994 103.803C228.817 101.872 229.138 99.4578 229.353 97.151C229.031 96.4 227.852 96.4 228.12 95.3271C228.549 94.5761 229.674 95.2198 230.103 94.3079C230.371 97.151 230.693 99.8333 229.192 102.301C230.103 104.608 227.905 106.485 228.656 108.953C228.709 109.007 228.977 109.221 229.299 109.436C228.87 110.562 228.549 111.742 229.674 112.708C225.172 114.961 217.721 114.425 215.095 111.742C214.988 111.26 215.31 110.991 215.685 110.884C215.792 110.884 216.006 110.884 216.06 110.938C217.507 113.244 221.741 113.03 223.778 110.777C225.493 108.953 226.78 106.861 227.745 104.661Z" fill="#4D596A"/>
<path d="M182.935 23.282C181.97 22.7991 180.898 23.7648 179.826 23.1747C181.22 21.9408 183.471 23.1747 184.543 21.5117C184.49 20.5461 183.525 21.2971 183.257 20.5461C184.382 20.2242 185.508 20.1169 186.741 19.6877C186.205 20.8143 185.615 21.9945 184.918 23.4429C186.741 22.2091 187.974 20.5461 190.117 20.4924C188.027 21.8872 186.902 24.1403 184.865 25.5887C182.56 27.2517 180.738 29.2902 179.398 31.8651C178.058 34.4937 175.646 36.264 173.823 38.5171C172.751 37.6588 173.234 37.1223 173.662 36.4786C175.27 34.1182 176.878 31.7578 178.594 29.2365C176.878 29.1292 175.806 30.7386 173.716 30.7922C175.324 29.0756 176.932 28.3782 178.594 27.7881C180.041 27.2517 181.542 26.8225 181.649 24.8913C181.702 24.1939 183.096 24.4085 182.935 23.282Z" fill="#4D596A"/>
<path d="M207.966 44.4718C208.556 44.7937 208.877 44.9546 209.306 45.2228C210.164 45.0083 210.86 43.989 212.093 44.5255C212.576 45.2765 212.361 46.4567 213.272 47.1004C212.468 50.641 211.236 53.8597 208.448 56.2737C207.805 56.381 207.323 56.1664 206.733 55.4154C207.269 51.9821 205.286 48.1197 207.966 44.4718Z" fill="#4D596A"/>
<path d="M193.387 39.4291C190.546 38.3026 187.974 38.0343 185.937 36.6396C183.579 37.927 183.418 38.1416 183.257 40.2874C182.882 40.7702 182.346 40.0192 181.81 40.6093C180.845 41.6822 181.381 43.5598 180.416 44.9545C179.13 42.0041 180.095 39.3218 184.436 33.5282C187.867 32.187 189.957 32.7235 192.422 35.4594C193.387 36.5323 194.513 37.4442 195.531 38.5708C193.387 37.9807 191.565 36.4786 188.831 36.6932C190.171 38.088 192.208 37.7125 193.387 39.4291Z" fill="#4D596A"/>
<path d="M187.706 76.6587C190.493 78.9654 182.56 84.008 178.862 84.3835C175.002 84.7591 171.411 83.6325 168.035 81.9695C167.016 81.4867 165.623 80.843 166.051 78.6972C168.571 80.8966 171.197 81.8622 174.252 81.4867C174.038 82.345 174.413 82.6133 175.002 82.6669C180.47 83.257 184.329 80.4675 187.706 76.6587Z" fill="#4D596A"/>
<path d="M192.422 53.8596C192.958 53.7523 193.44 53.6987 193.976 53.5914C191.082 53.4841 188.509 52.5721 186.312 50.48C189.099 50.8555 191.671 50.0508 194.244 49.2461C195.691 48.7633 197.192 48.9779 197.675 50.9091C198.479 50.9091 199.229 50.9091 199.926 50.9091C200.676 51.9284 199.979 52.4648 199.336 52.9476C197.192 54.4497 194.887 54.7179 192.422 54.557C192.422 54.3424 192.422 54.0742 192.422 53.8596Z" fill="#4D596A"/>
<path d="M200.194 41.7896C202.338 41.4677 204.375 41.0386 206.948 41.0922C205.179 42.2188 203.41 42.0042 201.802 42.7016C202.606 43.3453 203.464 42.5943 204.268 43.0234C203.624 44.0427 202.445 43.5599 201.373 44.2573C202.552 44.4182 203.356 44.4718 204.214 44.5791C204 45.4375 203.142 45.1156 202.606 45.652C204.268 45.9739 202.82 48.0661 204.482 48.3879C204.107 49.139 203.785 49.729 203.303 50.641C203.249 47.2077 200.14 45.1692 200.194 41.7896Z" fill="#4D596A"/>
<path d="M154.42 36.1031C155.814 33.6354 157.153 32.2406 158.815 31.3823C159.565 32.8307 160.477 34.2255 161.709 35.4057C162.674 36.3713 163.317 37.5515 162.406 38.9999C161.173 34.5474 157.368 33.9573 154.42 36.1031Z" fill="#4D596A"/>
<path d="M198.961 56.4881C197.568 57.3464 196.496 57.7756 194.995 56.7027C197.353 56.1662 199.39 55.4688 200.998 53.7522C201.641 55.0397 200.623 56.0589 200.945 57.2928C200.033 57.3464 199.229 57.4537 198.854 58.312C198.104 57.6683 198.747 57.2928 198.961 56.4881Z" fill="#4D596A"/>
<path d="M219.972 90.8746C218.418 91.0355 217.185 90.7673 216.113 89.8553C215.792 89.5871 215.792 89.1043 216.113 88.8361L217.239 87.8705C217.239 88.8361 216.328 89.909 218.043 90.0163C218.686 89.2652 219.061 88.0851 220.294 87.8705C220.187 88.6751 219.222 89.0507 219.383 90.0163C221.152 90.0699 221.259 87.6022 223.135 87.6559C222.599 88.8361 221.366 89.3725 220.776 90.3918C220.616 90.66 220.348 90.8746 219.972 90.8746Z" fill="#4D596A"/>
<path d="M151.687 40.3948C152.384 43.1843 151.901 46.2421 153.402 48.817C150.829 46.5103 150.829 43.5598 151.687 40.3948Z" fill="#4D596A"/>
<path d="M240.233 32.0261C244.413 35.0839 243.824 49.1388 239.429 55.308C240.929 47.5831 243.824 39.9656 240.233 32.0261Z" fill="#4D596A"/>
<path d="M228.602 69.041C230.263 69.5775 230.317 71.1332 230.746 71.8305C231.442 72.7425 231.925 71.9915 232.407 72.4743C232.139 73.0644 231.871 73.7081 231.442 74.7274C229.942 72.9034 229.084 71.0795 228.602 69.041Z" fill="#4D596A"/>
<path d="M205.822 79.4482C206.197 78.8582 206.573 78.2144 207.055 77.678C207.269 77.4097 207.537 77.1415 207.859 76.9269C208.181 76.7123 208.502 76.4978 208.931 76.3905C209.36 76.2832 209.789 76.3905 210.164 76.6587C210.539 76.8733 210.807 77.1952 211.021 77.4634C211.504 78.0535 211.825 78.7509 212.093 79.3946C213.273 82.0768 213.969 84.8127 215.202 87.2804C215.845 88.4606 216.649 89.6408 217.775 90.1772C218.311 90.4454 218.954 90.5527 219.597 90.4454C220.241 90.3382 220.884 90.1236 221.473 89.8553C222.706 89.2116 223.832 88.4069 224.85 87.4413C225.922 86.5294 226.94 85.5101 227.959 84.4909C227.155 85.671 226.244 86.7439 225.225 87.8168C224.207 88.8361 223.135 89.8017 221.848 90.5527C221.205 90.9282 220.509 91.2501 219.705 91.3574C218.954 91.5183 218.097 91.411 217.346 91.0892C216.596 90.7673 216.006 90.2309 215.524 89.6408C215.041 89.0507 214.613 88.4069 214.291 87.7632C212.951 85.1346 212.308 82.3451 211.343 79.7165C211.075 79.0727 210.807 78.429 210.485 77.8389C210.11 77.3024 209.628 76.8196 209.038 76.8733C208.449 76.9269 207.859 77.4097 207.323 77.8389C206.733 78.3217 206.305 78.8582 205.822 79.4482Z" fill="#4D596A"/>
<path d="M164.122 75.7468C164.506 75.7468 164.818 75.4346 164.818 75.0494C164.818 74.6643 164.506 74.3521 164.122 74.3521C163.737 74.3521 163.425 74.6643 163.425 75.0494C163.425 75.4346 163.737 75.7468 164.122 75.7468Z" fill="#4D596A"/>
<path d="M168.624 75.7468C169.098 75.7468 169.482 75.4346 169.482 75.0494C169.482 74.6643 169.098 74.3521 168.624 74.3521C168.151 74.3521 167.767 74.6643 167.767 75.0494C167.767 75.4346 168.151 75.7468 168.624 75.7468Z" fill="#4D596A"/>
<path d="M164.39 79.1799C164.893 79.1799 165.301 78.7716 165.301 78.2679C165.301 77.7643 164.893 77.356 164.39 77.356C163.886 77.356 163.479 77.7643 163.479 78.2679C163.479 78.7716 163.886 79.1799 164.39 79.1799Z" fill="#4D596A"/>
<path d="M168.892 79.18C169.514 79.18 170.018 78.7957 170.018 78.3217C170.018 77.8477 169.514 77.4634 168.892 77.4634C168.271 77.4634 167.767 77.8477 167.767 78.3217C167.767 78.7957 168.271 79.18 168.892 79.18Z" fill="#4D596A"/>
<path d="M173.019 80.3066C173.729 80.3066 174.305 79.8502 174.305 79.2873C174.305 78.7244 173.729 78.2681 173.019 78.2681C172.308 78.2681 171.732 78.7244 171.732 79.2873C171.732 79.8502 172.308 80.3066 173.019 80.3066Z" fill="#4D596A"/>
<path d="M176.128 78.6972C176.69 78.6972 177.146 78.2409 177.146 77.6779C177.146 77.115 176.69 76.6587 176.128 76.6587C175.565 76.6587 175.109 77.115 175.109 77.6779C175.109 78.2409 175.565 78.6972 176.128 78.6972Z" fill="#4D596A"/>
<path d="M175.753 74.7276C176.345 74.7276 176.825 74.2472 176.825 73.6547C176.825 73.0621 176.345 72.5818 175.753 72.5818C175.161 72.5818 174.681 73.0621 174.681 73.6547C174.681 74.2472 175.161 74.7276 175.753 74.7276Z" fill="#4D596A"/>
<path d="M171.679 75.0493C172.064 75.0493 172.376 74.7371 172.376 74.3519C172.376 73.9668 172.064 73.6545 171.679 73.6545C171.294 73.6545 170.982 73.9668 170.982 74.3519C170.982 74.7371 171.294 75.0493 171.679 75.0493Z" fill="#4D596A"/>
<path d="M178.807 73.0109C179.104 73.0109 179.343 72.7707 179.343 72.4744C179.343 72.1782 179.104 71.938 178.807 71.938C178.511 71.938 178.271 72.1782 178.271 72.4744C178.271 72.7707 178.511 73.0109 178.807 73.0109Z" fill="#4D596A"/>
<path d="M177.576 81.9695C177.961 81.9695 178.272 81.6572 178.272 81.2721C178.272 80.8869 177.961 80.5747 177.576 80.5747C177.191 80.5747 176.879 80.8869 176.879 81.2721C176.879 81.6572 177.191 81.9695 177.576 81.9695Z" fill="#4D596A"/>
<path d="M180.309 80.5212C180.545 80.5212 180.737 80.329 180.737 80.092C180.737 79.855 180.545 79.6628 180.309 79.6628C180.072 79.6628 179.88 79.855 179.88 80.092C179.88 80.329 180.072 80.5212 180.309 80.5212Z" fill="#4D596A"/>
<path d="M180.362 77.678C180.895 77.678 181.327 77.2457 181.327 76.7124C181.327 76.1791 180.895 75.7468 180.362 75.7468C179.829 75.7468 179.397 76.1791 179.397 76.7124C179.397 77.2457 179.829 77.678 180.362 77.678Z" fill="#4D596A"/>
<path d="M55.5289 219.676C50.0081 219.676 44.273 216.457 40.1994 211.146C35.4827 204.924 31.1411 193.712 33.8747 174.131C31.3019 179.603 25.7276 183.412 19.2956 183.412C10.4517 183.412 3.21582 176.17 3.21582 167.318C3.21582 166.997 3.21582 166.675 3.26942 166.353C3.91261 150.474 19.4028 138.779 49.4185 131.484C77.8798 124.563 112.666 123.115 136.839 123.115C143.271 123.115 149.703 123.169 155.921 123.222C162.085 123.276 167.927 123.33 173.716 123.33C220.99 123.33 248.38 119.253 248.38 98.3848V88.8896L254.168 96.3999C254.49 96.8291 262.583 107.558 258.027 119.36C255.562 125.744 249.934 131.001 241.304 135.078C244.36 135.883 246.986 137.492 248.862 139.691C251.22 142.427 252.185 145.968 251.596 149.616C250.095 158.789 243.02 163.992 238.303 166.514C248.058 179.496 245.753 190.01 243.341 195.375C238.839 205.46 228.119 211.683 220.722 211.683C213.433 211.683 206.304 208.357 201.802 205.728C201.695 207.338 201.105 208.84 200.033 210.073C198.747 211.522 196.871 212.434 194.941 212.487C194.673 212.487 194.405 212.487 194.191 212.487C191.403 212.487 189.152 211.844 188.938 211.736L186.472 210.985L186.687 208.41C186.901 205.514 187.276 202.402 187.759 199.13C181.541 203.046 173.876 205.567 167.498 205.567C163.639 205.567 160.369 204.709 157.743 202.992C155.009 205.406 150.882 207.928 145.844 207.928C141.663 207.928 137.697 206.157 133.998 202.617C130.675 205.675 124.136 210.181 114.488 210.181C111.701 210.181 109.343 209.001 107.788 206.801C104.519 202.295 105.001 193.497 106.984 184.002C105.376 186.684 103.179 188.615 100.231 188.615C97.39 188.615 95.8892 187.328 95.0852 186.201C94.5492 185.45 94.2277 184.592 94.0669 183.68C89.6717 192.907 87.4205 205.621 86.8309 211.093L86.7773 211.79L86.4021 212.434C85.4373 214.043 83.6686 215.009 81.203 215.223C80.935 215.223 80.667 215.277 80.399 215.277C77.9334 215.277 75.6823 214.043 74.2887 212.166C69.6791 215.599 62.604 219.676 55.5289 219.676ZM65.4984 148.596C57.9944 171.449 53.0097 197.36 57.8336 204.012C58.4768 204.87 59.1736 205.245 60.2992 205.245C61.8536 205.245 65.4984 204.441 72.3591 199.076C72.6807 182.875 78.6302 169.142 78.8982 168.552L79.6486 166.782L81.5782 166.621C82.1678 166.567 82.7574 166.567 83.347 166.567C88.4925 166.567 90.7437 168.767 91.7621 170.591C91.9229 170.913 92.0837 171.235 92.1909 171.556C95.4604 167.748 99.534 163.939 104.626 163.939C106.716 163.939 108.432 165.119 109.343 167.265C109.879 168.499 110.147 170.054 110.147 171.878C110.736 169.893 111.379 167.909 112.023 166.031C112.827 163.617 115.024 162.008 117.543 162.008C118.079 162.008 118.562 162.061 119.098 162.222C123.386 163.402 126.387 164.958 127.995 166.889L129.121 168.23L128.585 169.947C128.585 170.001 126.602 176.116 125.101 182.768C122.957 192.371 123.493 195.858 123.761 196.93C124.511 196.662 126.28 195.75 129.603 192.478C129.871 188.186 131.211 174.346 138.608 159.862C139.358 158.36 140.859 157.448 142.521 157.448C142.628 157.448 142.789 157.448 142.896 157.448C144.986 157.609 148.792 158.467 150.936 161.954C152.812 165.012 152.758 169.142 150.721 174.185C146.862 183.787 146.755 194.195 148.309 195.697C148.577 195.697 149.649 195.482 151.793 193.712C151.257 190.922 151.311 187.757 151.954 184.163C155.492 164.368 168.892 155.356 179.88 155.356C184.703 155.356 188.723 157.18 190.975 160.345C193.119 163.349 193.44 167.318 191.993 171.556C188.616 181.159 183.256 185.665 175.109 185.665C173.287 185.665 171.304 185.45 168.945 184.968C168.677 186.792 168.731 189.152 169.696 190.708C170.178 191.459 171.089 192.478 173.716 192.478C180.148 192.478 187.705 186.094 190.707 183.305C194.191 167.533 198.961 152.459 201.695 144.305C199.765 144.466 197.835 144.68 195.799 144.788C191.886 145.056 187.008 145.217 180.898 145.217C173.984 145.217 166.051 145.056 157.689 144.841C147.666 144.627 137.268 144.358 126.387 144.358C101.249 144.412 81.7926 145.7 65.4984 148.596ZM204.535 194.355C207.322 195.267 210.002 195.75 212.468 195.75C222.866 195.75 227.583 187.435 227.583 181.588C227.583 179.549 226.993 174.721 221.473 174.721C216.059 174.721 211.878 176.331 209.091 179.442C204.91 184.056 204.482 191.029 204.535 194.355ZM178.861 169.357C176.503 170.001 174.091 173.058 172.376 175.955C173.876 175.526 175.484 174.453 176.824 172.898C177.95 171.556 178.593 170.215 178.861 169.357ZM32.6419 158.36C34.1427 160.613 35.0539 163.241 35.3219 165.977C35.9115 163.295 36.6083 160.559 37.4123 157.609L37.6803 156.589L38.8594 155.678C36.7155 156.536 34.6251 157.448 32.6419 158.36ZM232.997 146.826C226.886 146.826 221.044 154.175 217.56 159.915C229.995 158.252 235.355 151.171 235.355 148.167C235.355 147.738 235.355 146.826 232.997 146.826Z" fill="#EDEDED"/>
<path d="M251.542 98.3312C251.542 98.3312 274.697 128.533 216.756 138.94L215.041 149.294C221.955 140.872 229.727 137.599 236.052 137.599C243.824 137.599 249.345 142.535 248.273 149.026C246.343 160.827 233.05 165.226 233.05 165.226C255.08 190.01 231.603 208.357 220.669 208.357C209.735 208.357 198.908 199.827 198.908 199.827C198.425 201.705 198.425 203.475 198.532 204.87C198.693 207.123 196.978 209.054 194.727 209.161C194.512 209.161 194.298 209.161 194.137 209.161C191.779 209.161 189.796 208.571 189.796 208.571C190.278 202.992 191.136 197.091 192.261 191.19C186.633 197.306 175.967 202.241 167.391 202.241C163.371 202.241 159.834 201.168 157.475 198.593C155.546 200.739 151.204 204.655 145.791 204.655C142.199 204.655 138.126 202.939 133.945 197.842C133.945 197.842 127.299 206.908 114.435 206.908C102.429 206.908 112.023 175.633 114.971 166.836C115.346 165.763 116.364 165.012 117.436 165.065C117.651 165.065 117.919 165.119 118.133 165.173C120.492 165.816 123.868 166.997 125.369 168.767C125.369 168.767 115.185 200.042 123.225 200.042C125.155 200.042 128.156 198.218 132.659 193.658C132.659 193.658 132.873 177.779 141.342 161.096C141.556 160.666 141.985 160.452 142.414 160.452C142.467 160.452 142.467 160.452 142.521 160.452C144.987 160.667 151.901 162.222 147.667 172.79C143.754 182.5 141.878 198.754 148.203 198.754C149.918 198.754 152.276 197.574 155.331 194.677C154.474 192.102 154.313 188.776 155.063 184.592C158.333 166.085 170.822 158.413 179.826 158.413C186.687 158.413 191.564 162.866 188.885 170.323C185.722 179.389 181.113 182.285 175.056 182.285C172.483 182.285 169.696 181.749 166.641 180.998C165.086 184.109 163.639 195.536 173.662 195.536C181.756 195.536 190.546 187.757 193.601 184.753C197.889 164.904 204.321 146.129 206.358 140.335C202.981 140.764 199.39 141.086 195.531 141.354C191.35 141.676 186.419 141.784 180.845 141.784C165.89 141.784 146.702 140.979 126.388 140.979C105.269 140.979 82.9184 141.891 63.0866 145.539C56.4939 165.119 45.1308 208.25 60.2995 208.25C63.837 208.25 68.7682 205.943 75.5753 200.417C75.5217 184.056 81.8464 169.625 81.8464 169.625C82.3824 169.572 82.8648 169.572 83.3472 169.572C94.5495 169.572 86.8312 181.427 86.8312 181.427C90.2616 181.427 96.4791 166.889 104.573 166.889C109.343 166.889 106.127 185.236 100.177 185.236C92.8879 185.236 101.249 171.825 99.4271 171.825C99.1591 171.825 98.6767 172.093 97.9263 172.737C86.6168 182.232 83.6152 210.824 83.6152 210.824C83.1328 211.629 82.0072 212.005 80.8281 212.112C80.6673 212.112 80.5065 212.112 80.3993 212.112C78.2553 212.112 76.4329 210.556 76.1113 208.41C76.0577 207.874 75.9505 207.391 75.8969 206.855C73.1633 209.161 64.105 216.404 55.5291 216.404C45.2916 216.404 28.3542 201.866 40.5213 158.467L54.4035 147.524C44.4876 149.884 35.3221 153.103 27.5502 157.394C30.391 159.755 32.2134 163.295 32.2134 167.318C32.2134 174.453 26.4782 180.193 19.3495 180.193C12.2208 180.193 6.48564 174.453 6.48564 167.318C6.48564 167.05 6.48564 166.782 6.53924 166.514C7.71843 135.024 78.4161 126.334 136.893 126.334C149.489 126.334 161.978 126.548 173.769 126.548C217.078 126.495 251.542 123.812 251.542 98.3312ZM212.039 163.51C237.392 163.51 245.057 143.607 232.997 143.607C220.937 143.607 212.039 163.51 212.039 163.51ZM171.036 179.389C179.451 179.389 186.044 166.031 179.773 166.031C172.644 166.031 167.498 178.53 167.498 178.53C168.678 179.12 169.857 179.389 171.036 179.389ZM212.415 198.969C232.782 198.969 236.695 171.503 221.419 171.503C198.425 171.503 201.427 196.662 201.427 196.662C205.5 198.272 209.199 198.969 212.415 198.969ZM245.11 79.3945V98.3848C245.11 102.784 243.824 106.163 240.983 108.899C238.089 111.742 233.426 114.049 227.208 115.766C213.433 119.575 193.333 120.057 173.716 120.057C167.927 120.057 162.085 120.004 155.921 119.95C149.703 119.896 143.271 119.843 136.839 119.843C112.505 119.843 77.3977 121.291 48.6684 128.319C34.5718 131.752 23.4231 136.204 15.5439 141.569C5.68165 148.275 0.482506 156.536 0.10731 166.138C0.10731 166.567 0.0537109 166.943 0.0537109 167.265C0.0537109 177.94 8.68322 186.577 19.3495 186.577C23.2623 186.577 26.8534 185.397 29.9086 183.412C29.4798 198.164 33.4462 207.391 37.6805 212.97C42.3437 219.139 49.0436 222.787 55.5827 222.787C62.3899 222.787 69.0898 219.515 73.9673 216.35C75.7897 217.691 78.0409 218.496 80.3993 218.496C80.7745 218.496 81.1497 218.496 81.5248 218.442C85.92 218.013 88.1176 215.813 89.136 214.097L89.8864 212.863L90.0472 211.415C90.0472 211.361 90.7975 204.494 92.8343 196.716C93.4239 194.409 94.1207 192.21 94.8175 190.278C96.1039 191.137 97.8727 191.781 100.231 191.781C101.035 191.781 101.839 191.673 102.536 191.512C101.678 199.452 102.536 204.977 105.216 208.679C107.413 211.683 110.683 213.399 114.542 213.399C123.386 213.399 129.872 209.966 133.999 206.801C137.697 209.644 141.663 211.093 145.898 211.093C150.829 211.093 155.01 209.054 158.118 206.801C160.852 208.089 164.014 208.732 167.552 208.732C172.751 208.732 178.486 207.284 183.846 204.87C183.739 205.943 183.632 207.069 183.525 208.089L183.096 213.238L188.081 214.741C188.563 214.901 191.082 215.599 194.298 215.599C194.62 215.599 194.888 215.599 195.209 215.599C197.996 215.492 200.73 214.204 202.552 212.058C203.035 211.522 203.464 210.932 203.785 210.288C208.448 212.595 214.451 214.794 220.776 214.794C225.118 214.794 230.317 212.97 234.926 209.859C238.464 207.445 243.342 203.207 246.29 196.609C248.809 190.976 251.221 180.354 242.913 167.372C247.79 164.1 253.365 158.574 254.758 149.991C255.509 145.431 254.276 140.979 251.328 137.492C250.47 136.473 249.452 135.561 248.326 134.756C254.597 130.786 258.832 126.012 261.029 120.379C266.229 106.914 257.117 94.7906 256.741 94.3078L245.11 79.3945ZM67.9642 151.44C83.6688 148.865 102.375 147.631 126.388 147.631C137.268 147.631 147.613 147.845 157.636 148.114C165.998 148.328 173.93 148.489 180.898 148.489C187.169 148.489 191.993 148.328 196.067 148.06C196.442 148.06 196.764 148.006 197.139 147.953C196.12 151.064 194.995 154.766 193.816 158.789C193.762 158.682 193.708 158.628 193.655 158.521C190.814 154.444 185.776 152.137 179.933 152.137C173.448 152.137 166.534 154.98 161.066 159.969C158.976 161.847 157.154 163.992 155.546 166.353C155.438 164.1 154.849 162.008 153.723 160.184C151.633 156.75 147.774 154.551 143.218 154.122C143.003 154.122 142.789 154.068 142.521 154.068C139.627 154.068 137.054 155.678 135.714 158.252C134.267 161.096 133.034 163.885 132.016 166.621L130.408 164.69C128.317 162.222 124.887 160.345 119.902 159.004C119.152 158.789 118.348 158.682 117.544 158.682C114.489 158.682 111.701 160.237 110.04 162.651C108.593 161.31 106.717 160.559 104.626 160.559C99.7487 160.559 95.7823 163.134 92.5663 166.299C90.7439 164.636 87.8496 163.241 83.4008 163.241C82.7576 163.241 82.0608 163.295 81.3641 163.349L77.5585 163.671L76.0041 167.211C75.7361 167.801 69.8938 181.266 69.2506 197.413C63.7298 201.544 61.1571 201.973 60.4603 201.973C59.9243 201.061 57.9411 196.394 60.6747 180.569C62.5507 169.25 65.981 157.716 67.9642 151.44ZM225.975 154.068C227.53 152.459 229.138 151.225 230.692 150.581C229.674 151.654 228.173 152.942 225.975 154.068ZM207.805 191.941C208.02 188.615 208.931 184.378 211.45 181.534C213.647 179.067 216.917 177.887 221.419 177.887C222.331 177.887 224.314 177.887 224.314 181.534C224.314 186.094 220.615 192.478 212.415 192.478C210.967 192.532 209.413 192.371 207.805 191.941ZM173.662 189.259C172.858 189.259 172.483 189.098 172.43 189.045C172.376 188.991 172.269 188.884 172.215 188.723C173.18 188.83 174.145 188.884 175.056 188.884C175.431 188.884 175.806 188.884 176.181 188.884C175.27 189.098 174.413 189.259 173.662 189.259Z" fill="#EDEDED"/>
<path d="M372.355 162.598C371.712 161.417 370.533 160.666 369.193 160.666C368.282 160.666 367.424 160.988 366.781 161.632C361.635 166.406 356.704 170.322 352.577 173.005C348.396 175.687 344.966 177.189 342.715 177.189C342.393 177.189 342.125 177.135 341.911 177.082C341.16 176.867 339.284 176.384 338.802 173.648C340.142 174.56 341.911 175.043 343.84 175.043C345.984 175.043 348.343 174.453 350.701 173.327C355.418 171.074 363.243 161.149 362.064 152.942C361.635 150.045 359.706 145.002 351.237 143.607C350.379 143.446 349.468 143.393 348.611 143.393C342.447 143.393 336.068 146.826 330.548 153.049C324.008 160.452 320.203 170.108 321.114 177.082C321.221 177.994 321.436 178.852 321.704 179.764C318.541 181.588 317.041 181.802 316.451 181.802C316.344 181.802 316.29 181.802 316.237 181.802C316.076 181.534 315.486 180.139 316.237 175.58C316.826 171.825 318.059 167.372 319.238 163.134C321.168 156.16 322.24 152.137 321.811 149.401L321.704 148.757L321.382 148.221C320.257 146.343 318.113 145.217 314.789 144.788C314.414 144.734 314.039 144.734 313.664 144.734C310.019 144.734 306.803 147.041 305.624 150.474C301.068 163.724 299.085 172.951 299.406 179.388C297.959 181.051 294.368 184.485 289.866 184.807C289.33 182.929 289.49 176.76 293.135 163.51C293.564 162.008 293.993 160.398 294.529 158.682C295.172 156.536 294.904 154.175 293.725 152.244C292.653 150.367 290.777 148.972 288.686 148.489C288.633 148.489 288.579 148.435 288.472 148.435C286.221 147.953 284.238 147.684 282.523 147.684H280.218L279.467 149.83C279.253 150.474 274 165.655 272.875 175.204C271.642 186.04 269.23 187.542 266.818 187.542C266.121 187.542 265.317 187.435 264.406 187.167C264.084 187.06 263.816 186.899 263.548 186.416C260.6 180.461 269.337 157.931 273.518 147.094C274.161 145.431 274.107 143.607 273.357 141.998C272.607 140.389 271.267 139.155 269.605 138.565C266.871 137.599 264.781 137.063 263.28 137.009H262.53L261.887 137.277C259.368 138.35 256.527 142.642 253.472 150.098C250.577 157.126 248.326 165.065 247.361 171.878C245.646 183.573 247.415 191.619 252.507 195.857C255.508 198.325 258.778 199.613 262.208 199.613C267.89 199.613 272.499 196.072 275.287 193.282C277.163 195.053 280.111 196.769 284.398 196.769C289.651 196.769 295.708 193.98 302.301 188.508C304.552 191.298 307.714 192.746 310.823 193.926C312.217 194.463 313.717 194.731 315.272 194.731C320.632 194.731 325.509 191.405 328.511 188.776C329.904 189.688 331.405 190.332 333.013 190.815C334.621 191.244 336.336 191.512 338.052 191.512C345.609 191.512 357.615 187.167 372.034 166.299C372.891 165.226 372.945 163.778 372.355 162.598ZM340.732 164.743C342.661 161.149 345.609 158.252 348.289 157.662C347.378 159.808 344.269 163.671 340.732 164.743Z" fill="#EDEDED"/>
<path d="M375.196 161.096C374.017 158.842 371.712 157.448 369.193 157.448C367.585 157.448 366.031 158.038 364.798 159.057C365.334 156.858 365.548 154.605 365.227 152.512C364.798 149.455 362.6 142.213 351.72 140.442C350.701 140.281 349.629 140.174 348.557 140.174C341.482 140.174 334.193 143.983 328.082 150.903C326.796 152.405 325.563 153.961 324.491 155.57C325.081 152.834 325.295 150.688 324.974 148.865L324.759 147.631L324.116 146.558C322.454 143.822 319.453 142.159 315.165 141.622C314.629 141.569 314.146 141.515 313.61 141.515C308.572 141.515 304.123 144.68 302.515 149.401C300.907 154.122 299.567 158.36 298.549 162.168C298.442 162.598 298.335 163.08 298.227 163.51C296.727 169.41 296.03 174.185 296.083 178.155C295.279 178.959 294.154 179.871 292.867 180.569C293.135 177.35 294.1 171.825 296.405 163.51C296.727 162.276 297.155 160.988 297.531 159.593C297.906 158.413 298.013 157.179 298.013 155.999C298.013 155.248 297.906 154.551 297.745 153.853C297.477 152.727 297.048 151.654 296.459 150.635C294.851 147.953 292.224 145.968 289.169 145.324C288.74 145.217 288.311 145.163 287.883 145.056C285.9 144.68 284.131 144.466 282.523 144.466H277.967L276.466 148.757C276.252 149.401 270.838 164.904 269.713 174.829C268.748 182.983 267.301 184.163 267.14 184.27C267.14 184.27 267.033 184.27 266.872 184.27C266.765 184.27 266.604 184.27 266.389 184.216C266.229 182.929 266.175 179.496 268.319 171.825C270.356 164.422 273.679 155.731 276.627 148.167C277.592 145.699 277.484 142.964 276.412 140.55C275.287 138.136 273.304 136.312 270.838 135.4C267.729 134.273 265.425 133.737 263.549 133.683L262.101 133.629L260.761 134.166C259.261 134.81 255.777 136.258 250.631 148.757C247.63 155.999 245.325 164.207 244.306 171.288C242.43 184.163 244.521 193.229 250.631 198.218C254.222 201.222 258.189 202.724 262.369 202.724C267.837 202.724 272.446 200.095 275.662 197.359C277.967 198.808 280.915 199.881 284.56 199.881C290.027 199.881 295.869 197.52 302.194 192.746C304.767 194.945 307.715 196.072 309.805 196.877C311.574 197.574 313.45 197.896 315.379 197.896C320.739 197.896 325.563 195.214 328.94 192.585C331.727 193.926 334.889 194.677 338.159 194.677C346.467 194.677 359.545 190.064 374.767 168.069C376.215 166.085 376.375 163.349 375.196 161.096ZM338.105 188.293C334.032 188.293 330.709 186.791 328.35 184.538C326.689 186.255 321.222 191.512 315.326 191.512C314.254 191.512 313.128 191.351 312.056 190.922C308.09 189.42 304.713 187.811 303.266 183.412C294.851 191.137 288.74 193.497 284.452 193.497C277.913 193.497 275.501 188.186 275.501 188.186C275.501 188.186 269.82 196.34 262.316 196.34C259.904 196.34 257.331 195.536 254.651 193.336C242.27 183.09 258.135 142.32 263.227 140.174C264.674 140.228 266.818 140.871 268.641 141.515C270.409 142.159 271.32 144.144 270.624 145.86C263.12 165.173 254.919 187.703 263.602 190.225C264.781 190.547 265.907 190.708 266.872 190.708C273.357 190.708 275.18 183.626 276.091 175.526C277.163 166.245 282.523 150.849 282.523 150.849C284.238 150.849 286.114 151.171 287.776 151.547C288.365 151.654 288.901 151.922 289.384 152.191C291.152 153.317 292.063 155.57 291.42 157.716C291.099 158.682 290.777 159.808 290.455 160.988C287.561 171.342 283.702 188.025 289.169 188.025C297.155 188.025 302.623 180.408 302.623 180.408C301.979 174.882 303.534 166.085 308.572 151.493C309.322 149.347 311.359 147.899 313.61 147.899C313.825 147.899 314.093 147.899 314.307 147.953C316.076 148.167 317.898 148.704 318.595 149.83C319.56 156.16 306.321 184.968 316.344 184.968C318.381 184.968 321.382 183.787 325.617 180.998C324.866 179.603 324.384 178.101 324.17 176.653C322.83 165.924 335.318 146.558 348.504 146.558C349.2 146.558 349.897 146.611 350.648 146.719C366.995 149.401 354.936 167.587 349.2 170.322C347.164 171.288 345.288 171.717 343.733 171.717C341.268 171.717 339.499 170.644 339.017 168.928C338.909 168.552 339.177 168.123 339.553 168.069C348.128 167.372 355.793 154.175 349.2 154.175C338.695 154.175 328.779 176.76 341 180.032C341.536 180.193 342.072 180.247 342.661 180.247C350.38 180.247 363.512 168.874 368.925 163.831C368.979 163.778 369.086 163.724 369.193 163.724C369.461 163.724 369.675 164.046 369.515 164.314C357.026 182.446 346.145 188.293 338.105 188.293Z" fill="#EDEDED"/>
<path d="M215.094 149.347L216.809 138.994C274.697 128.533 251.595 98.3848 251.595 98.3848C251.595 130.733 195.852 126.334 136.839 126.334C78.3621 126.334 7.66443 135.024 6.48524 166.514C6.48524 166.782 6.43164 167.05 6.43164 167.318C6.43164 174.453 12.1668 180.193 19.2955 180.193C26.4242 180.193 32.1594 174.453 32.1594 167.318C32.1594 163.349 30.337 159.754 27.4962 157.394C35.2681 153.103 44.4336 149.937 54.3495 147.523L40.4673 158.467C28.3002 201.866 45.2376 216.403 55.4751 216.403C64.051 216.403 73.1629 209.215 75.8429 206.855C75.8965 207.391 75.9501 207.874 76.0573 208.41C76.3789 210.717 78.4693 212.326 80.7741 212.058C81.9532 211.951 83.0788 211.575 83.5612 210.771C83.5612 210.771 86.5628 182.178 97.8723 172.844C103.929 167.855 91.8155 185.343 100.123 185.343C106.073 185.343 109.289 166.997 104.519 166.997C96.4251 166.997 90.2076 181.534 86.7772 181.534C86.7772 181.534 95.1387 168.66 81.7924 169.732C81.7924 169.732 75.4677 184.163 75.5213 200.525C39.5561 229.654 54.8855 169.786 63.0326 145.646C109.075 137.116 168.248 143.5 195.53 141.462C199.39 141.193 202.981 140.818 206.358 140.442C204.321 146.236 197.889 164.958 193.601 184.86C190.546 187.864 181.755 195.643 173.662 195.643C163.639 195.643 165.086 184.217 166.64 181.105C176.985 183.734 184.382 183.305 188.938 170.43C195.048 153.103 160.905 152.137 155.116 184.699C154.366 188.884 154.527 192.21 155.384 194.785C141.073 208.142 142.789 185.236 147.72 172.897C151.954 162.276 145.04 160.774 142.574 160.559C142.092 160.506 141.609 160.774 141.395 161.203C132.926 177.886 132.712 193.765 132.712 193.765C109.718 217.154 125.422 168.874 125.422 168.874C123.922 167.104 120.491 165.87 118.186 165.28C116.846 164.904 115.453 165.655 115.024 166.997C112.076 175.794 102.535 207.069 114.488 207.069C127.352 207.069 133.998 198.003 133.998 198.003C144.504 210.771 154.312 202.241 157.528 198.754C164.872 206.801 184.007 200.31 192.314 191.351C191.189 197.252 190.331 203.153 189.849 208.732C189.849 208.732 192.154 209.43 194.78 209.322C197.031 209.215 198.746 207.284 198.586 205.031C198.478 203.636 198.478 201.812 198.961 199.988C198.961 199.988 209.734 208.518 220.722 208.518C231.71 208.518 255.133 190.171 233.104 165.387C233.104 165.387 246.45 160.988 248.326 149.186C250.255 137.277 230.424 130.625 215.094 149.347ZM179.719 166.031C186.847 166.031 177.36 183.305 167.444 178.53C167.444 178.53 172.59 166.031 179.719 166.031ZM201.426 196.662C201.426 196.662 198.425 171.503 221.419 171.503C239.16 171.503 231.067 208.464 201.426 196.662ZM212.039 163.51C212.039 163.51 220.99 143.607 232.996 143.607C245.003 143.607 237.392 163.51 212.039 163.51Z" fill="#37B2F8"/>
<path d="M368.925 163.992C363.082 169.411 348.343 182.178 340.999 180.193C328.779 176.921 338.695 154.336 349.2 154.336C355.793 154.336 348.128 167.533 339.552 168.23C339.123 168.284 338.855 168.66 339.016 169.089C339.874 171.878 344.001 172.951 349.254 170.483C354.989 167.748 367.049 149.562 350.701 146.88C336.765 144.627 322.829 165.495 324.276 176.814C324.437 178.262 324.973 179.764 325.724 181.159C300.478 197.735 319.881 157.555 318.702 149.991C318.005 148.865 316.237 148.328 314.414 148.114C311.895 147.792 309.537 149.24 308.679 151.654C303.641 166.299 302.086 175.043 302.729 180.569C302.729 180.569 297.262 188.186 289.276 188.186C283.112 188.186 288.633 167.426 291.474 157.877C292.278 155.141 290.616 152.298 287.829 151.654C286.167 151.279 284.291 150.957 282.576 150.957C282.576 150.957 277.216 166.353 276.144 175.633C275.072 184.914 272.821 192.907 263.656 190.278C254.972 187.811 263.173 165.226 270.677 145.914C271.374 144.144 270.463 142.213 268.694 141.569C266.925 140.925 264.728 140.281 263.28 140.228C258.188 142.374 242.323 183.144 254.704 193.39C265.639 202.456 275.555 188.24 275.555 188.24C275.555 188.24 282.255 202.939 303.373 183.466C304.82 187.811 308.197 189.42 312.163 190.976C319.131 193.658 326.474 186.684 328.457 184.592C335.532 191.19 350.808 191.62 369.568 164.529C369.729 164.1 369.246 163.671 368.925 163.992Z" fill="#37B2F8"/>
<path d="M95.8362 251.809C87.7427 251.809 82.8115 246.552 82.8115 237.754C82.8115 228.956 87.7963 223.699 95.7826 223.699C101.303 223.699 105.806 226.06 107.092 231.21L101.035 233.731C100.285 230.351 98.7306 229.278 95.997 229.278C92.1378 229.278 89.8331 232.175 89.8331 237.754C89.8331 243.28 91.977 246.23 95.8362 246.23C98.7842 246.23 100.446 244.835 101.089 241.778L107.36 243.601C105.859 249.288 101.464 251.809 95.8362 251.809Z" fill="#EDEDED"/>
<path d="M127.675 245.211H118.509L116.687 251.38H109.719L119.045 224.075H127.299L136.572 251.38H129.443L127.675 245.211ZM126.227 240.383L124.298 233.838L123.119 229.546H123.065L121.993 233.784L120.01 240.383H126.227Z" fill="#EDEDED"/>
<path d="M164.818 251.38H157.154L148.899 236.628L146.916 232.497H146.863L147.023 237.647V251.434H140.913V224.128H148.578L156.832 238.881L158.815 243.011H158.869L158.708 237.861V224.075H164.818V251.38Z" fill="#EDEDED"/>
<path d="M178.754 251.38H171.84V224.075H178.754V251.38Z" fill="#EDEDED"/>
<path d="M209.734 251.38H202.07L193.815 236.628L191.832 232.497H191.779L191.939 237.647V251.434H185.829V224.128H193.494L201.748 238.881L203.731 243.011H203.785L203.624 237.861V224.075H209.734V251.38Z" fill="#EDEDED"/>
<path d="M237.982 245.908V251.434H216.811V224.128H237.446V229.6H223.725V235.126H234.659V240.276H223.725V245.855H237.982V245.908Z" fill="#EDEDED"/>
<path d="M265.157 228.581L261.244 233.194C259.475 230.458 257.224 229.171 253.848 229.171C251.007 229.171 249.506 230.351 249.506 231.907C249.506 233.302 250.739 234.16 254.812 234.911C262.102 236.198 264.943 238.613 264.943 243.387C264.943 248.751 260.119 251.809 253.74 251.809C247.469 251.809 244.2 250.146 241.573 247.196L245.164 242.207C247.308 245.372 249.881 246.337 253.419 246.337C256.367 246.337 257.814 245.372 257.814 243.816C257.814 242.582 256.581 241.885 252.615 241.08C245.164 239.685 242.324 237.271 242.324 232.604C242.324 227.454 246.451 223.699 253.74 223.699C258.725 223.699 262.102 225.094 265.157 228.581Z" fill="#EDEDED"/>
<path d="M340.732 229.278H276.573C276.091 229.278 275.716 228.903 275.716 228.42V224.826C275.716 224.343 276.091 223.967 276.573 223.967H340.732C341.214 223.967 341.59 224.343 341.59 224.826V228.42C341.59 228.903 341.214 229.278 340.732 229.278Z" fill="#EDEDED"/>
<path d="M307.071 238.13H276.573C276.091 238.13 275.716 237.754 275.716 237.271V233.677C275.716 233.194 276.091 232.819 276.573 232.819H307.071C307.554 232.819 307.929 233.194 307.929 233.677V237.271C307.929 237.701 307.554 238.13 307.071 238.13Z" fill="#EDEDED"/>
<path d="M290.402 246.928H276.573C276.091 246.928 275.716 246.552 275.716 246.069V242.475C275.716 241.992 276.091 241.617 276.573 241.617H290.402C290.884 241.617 291.26 241.992 291.26 242.475V246.069C291.26 246.552 290.884 246.928 290.402 246.928Z" fill="#EDEDED"/>
<path d="M71.3413 229.278H7.18279C6.70039 229.278 6.3252 228.903 6.3252 228.42V224.826C6.3252 224.343 6.70039 223.967 7.18279 223.967H71.3413C71.8237 223.967 72.1989 224.343 72.1989 224.826V228.42C72.1989 228.903 71.8237 229.278 71.3413 229.278Z" fill="#EDEDED"/>
<path d="M71.341 238.13H40.8429C40.3605 238.13 39.9854 237.754 39.9854 237.271V233.677C39.9854 233.194 40.3605 232.819 40.8429 232.819H71.341C71.8234 232.819 72.1986 233.194 72.1986 233.677V237.271C72.1986 237.701 71.8234 238.13 71.341 238.13Z" fill="#EDEDED"/>
<path d="M71.3415 246.928H57.5129C57.0305 246.928 56.6553 246.552 56.6553 246.069V242.475C56.6553 241.992 57.0305 241.617 57.5129 241.617H71.3415C71.8239 241.617 72.1991 241.992 72.1991 242.475V246.069C72.1991 246.552 71.8239 246.928 71.3415 246.928Z" fill="#EDEDED"/>
</g>
<defs>
<clipPath id="clip0">
<rect width="376" height="287" fill="white"/>
</clipPath>
</defs>
</svg>
