<svg width="24" height="25" viewBox="0 0 24 25" fill="none" xmlns="http://www.w3.org/2000/svg">
<path d="M12 14.0625C15.7266 14.0625 18.75 10.9131 18.75 7.03125C18.75 3.14941 15.7266 0 12 0C8.27344 0 5.25 3.14941 5.25 7.03125C5.25 10.9131 8.27344 14.0625 12 14.0625ZM18 15.625H15.4172C14.3766 16.123 13.2188 16.4062 12 16.4062C10.7812 16.4062 9.62813 16.123 8.58281 15.625H6C2.68594 15.625 0 18.4229 0 21.875V22.6562C0 23.9502 1.00781 25 2.25 25H21.75C22.9922 25 24 23.9502 24 22.6562V21.875C24 18.4229 21.3141 15.625 18 15.625Z" fill="white"/>
</svg>
