<svg width="30" height="25" viewBox="0 0 30 25" fill="none" xmlns="http://www.w3.org/2000/svg">
<path d="M14.6023 6.30035L5.0004 14.5329V23.4183C5.0004 23.6483 5.08819 23.869 5.24445 24.0317C5.40072 24.1943 5.61267 24.2857 5.83366 24.2857L11.6697 24.27C11.8899 24.2689 12.1008 24.177 12.2562 24.0144C12.4116 23.8518 12.4988 23.6319 12.4988 23.4026V18.2136C12.4988 17.9836 12.5866 17.7629 12.7428 17.6002C12.8991 17.4376 13.111 17.3462 13.332 17.3462H16.6651C16.8861 17.3462 17.0981 17.4376 17.2543 17.6002C17.4106 17.7629 17.4984 17.9836 17.4984 18.2136V23.3988C17.498 23.5129 17.5193 23.626 17.5611 23.7315C17.6028 23.8371 17.6641 23.9331 17.7415 24.0139C17.8189 24.0947 17.9109 24.1589 18.0122 24.2026C18.1134 24.2464 18.222 24.2689 18.3317 24.2689L24.1656 24.2857C24.3866 24.2857 24.5985 24.1943 24.7548 24.0317C24.9111 23.869 24.9989 23.6483 24.9989 23.4183V14.527L15.3991 6.30035C15.2862 6.20565 15.1456 6.15401 15.0007 6.15401C14.8557 6.15401 14.7151 6.20565 14.6023 6.30035ZM29.7693 11.8959L25.4155 8.15994V0.650583C25.4155 0.478038 25.3496 0.312559 25.2324 0.190551C25.1152 0.0685435 24.9563 0 24.7905 0H21.8741C21.7083 0 21.5494 0.0685435 21.4322 0.190551C21.315 0.312559 21.2491 0.478038 21.2491 0.650583V4.58715L16.5865 0.593657C16.139 0.210344 15.5775 0.000766249 14.9981 0.000766249C14.4186 0.000766249 13.8571 0.210344 13.4096 0.593657L0.226805 11.8959C0.163522 11.9504 0.111165 12.0173 0.0727266 12.0928C0.0342879 12.1683 0.0105204 12.251 0.00278216 12.3361C-0.0049561 12.4211 0.00348653 12.507 0.0276277 12.5887C0.0517688 12.6704 0.0911353 12.7463 0.143478 12.8121L1.4715 14.4928C1.5237 14.5589 1.58791 14.6136 1.66044 14.6538C1.73298 14.694 1.81242 14.719 1.89422 14.7272C1.97603 14.7354 2.05858 14.7267 2.13716 14.7017C2.21574 14.6766 2.2888 14.6357 2.35216 14.5812L14.6023 4.07753C14.7151 3.98283 14.8557 3.93119 15.0007 3.93119C15.1456 3.93119 15.2862 3.98283 15.3991 4.07753L27.6497 14.5812C27.7129 14.6357 27.7859 14.6767 27.8644 14.7018C27.9428 14.7269 28.0253 14.7357 28.107 14.7277C28.1888 14.7196 28.2682 14.6949 28.3407 14.6548C28.4133 14.6148 28.4775 14.5603 28.5298 14.4944L29.8579 12.8138C29.9101 12.7475 29.9493 12.6712 29.9732 12.5892C29.9971 12.5071 30.0051 12.421 29.9969 12.3357C29.9886 12.2504 29.9643 12.1676 29.9253 12.0922C29.8862 12.0167 29.8332 11.95 29.7693 11.8959Z" fill="white"/>
</svg>
