<svg width="33" height="38" viewBox="0 0 33 38" fill="none" xmlns="http://www.w3.org/2000/svg">
<path d="M27.8571 2.375H2.13616C0.957589 2.375 0 3.35334 0 4.55433V30.4229C0 31.6239 0.957589 32.6023 2.13616 32.6023H27.8571C29.0357 32.6023 30 31.6239 30 30.4229V4.55433C30 3.35334 29.0357 2.375 27.8571 2.375ZM9.06696 28.2841H4.62054V13.8587H9.07366V28.2841H9.06696ZM6.84375 11.8885C5.41741 11.8885 4.26562 10.7212 4.26562 9.29084C4.26562 7.86044 5.41741 6.69318 6.84375 6.69318C8.26339 6.69318 9.42187 7.86044 9.42187 9.29084C9.42187 10.728 8.27009 11.8885 6.84375 11.8885ZM25.7344 28.2841H21.2879V21.267C21.2879 19.5937 21.2545 17.4414 18.9777 17.4414C16.6607 17.4414 16.3058 19.2631 16.3058 21.1456V28.2841H11.8594V13.8587H16.125V15.8288H16.1853C16.7812 14.6953 18.2344 13.5011 20.3973 13.5011C24.8973 13.5011 25.7344 16.4901 25.7344 20.3764V28.2841Z" fill="#1A41CC"/>
</svg>
