<svg width="30" height="25" viewBox="0 0 30 25" fill="none" xmlns="http://www.w3.org/2000/svg">
<path d="M12.3116 12.1652L12.3116 12.1652L9.57648 9.37469C9.47404 9.27015 9.47404 9.09672 9.57648 8.99218L12.3112 6.20169C12.4081 6.10279 12.5608 6.10279 12.6577 6.20169L13.1879 6.74266C13.2903 6.8472 13.2903 7.02063 13.1879 7.12516L13.1878 7.12521L11.5139 8.83376L11.171 9.18377L11.514 9.53369L13.1884 11.2417C13.1884 11.2417 13.1884 11.2417 13.1884 11.2418C13.2908 11.3463 13.2908 11.5197 13.1884 11.6242L12.6582 12.1652C12.5613 12.2641 12.4086 12.2641 12.3116 12.1652ZM18.4861 9.53359L18.8289 9.18363L18.486 8.83371L16.8121 7.12564C16.7097 7.02111 16.7097 6.84768 16.8121 6.74314L17.3423 6.20216C17.4392 6.10326 17.5919 6.10326 17.6888 6.20216L20.4235 8.99266C20.526 9.0972 20.526 9.27063 20.4235 9.37516L17.6888 12.1657C17.5919 12.2646 17.4392 12.2646 17.3423 12.1657L16.8121 11.6247C16.7097 11.5202 16.7097 11.3467 16.8121 11.2422L16.8122 11.2421L18.4861 9.53359ZM24 15.8061H24.5V15.3061V3.06122V2.56122H24H6H5.5V3.06122V15.3061V15.8061H6H24ZM0.75 20.398H11.5342C11.627 20.7189 11.8054 21.0206 12.0334 21.265C12.3848 21.6415 12.8975 21.9286 13.5 21.9286H16.35C16.8896 21.9286 17.393 21.7408 17.7685 21.3783C18.038 21.1182 18.2261 20.7831 18.3192 20.398H29.25C29.3769 20.398 29.5 20.5089 29.5 20.6633V21.4286C29.5 22.8457 28.3644 23.9898 27 23.9898H3C1.63562 23.9898 0.5 22.8457 0.5 21.4286V20.6633C0.5 20.5089 0.623117 20.398 0.75 20.398ZM24.75 0.5C25.7019 0.5 26.5 1.29973 26.5 2.29592V17.8673H3.5V2.29592C3.5 1.29973 4.29812 0.5 5.25 0.5H24.75Z" fill="white" stroke="white"/>
</svg>
