<svg width="116" height="109" viewBox="0 0 116 109" fill="none" xmlns="http://www.w3.org/2000/svg">
<rect x="5.7699e-06" width="116" height="109" fill="#2E3347"/>
<path d="M53.4307 22H54.7073V57.4705C54.7073 58.6346 54.4788 59.7873 54.0348 60.8628C53.5909 61.9383 52.9402 62.9156 52.1199 63.7387C51.2995 64.5619 50.3257 65.2149 49.2539 65.6603C48.1821 66.1058 47.0334 66.3351 45.8733 66.3351V29.5866C45.8733 27.575 46.6694 25.6458 48.0866 24.2231C49.5038 22.8004 51.4261 22.0008 53.4307 22V22Z" fill="white"/>
<path d="M39.4757 39.6707H40.2878V66.3908H39.4757C36.6974 66.3908 34.0328 65.2833 32.0683 63.3119C30.1037 61.3405 29 58.6667 29 55.8787V50.1829C29 47.3949 30.1037 44.7211 32.0683 42.7497C34.0328 40.7783 36.6974 39.6707 39.4757 39.6707Z" fill="white"/>
<path d="M60.4125 84V48.5295C60.4125 46.1785 61.3432 43.9237 62.9999 42.2613C64.6566 40.5988 66.9036 39.6649 69.2465 39.6649V75.1353C69.2465 77.4864 68.3157 79.7411 66.6591 81.4036C65.0024 83.066 62.7554 84 60.4125 84Z" fill="white"/>
<path d="M74.7093 66.3293V39.6092C77.7037 39.6092 80.5756 40.8029 82.693 42.9277C84.8104 45.0525 86 47.9343 86 50.9392V55.0022C85.9992 58.0066 84.8093 60.8877 82.692 63.0118C80.5746 65.136 77.7032 66.3293 74.7093 66.3293Z" fill="white"/>
<path d="M42.4992 39.6707H40.168V40.1632H42.4992V39.6707Z" fill="white"/>
<path d="M42.4992 65.8983H40.168V66.3908H42.4992V65.8983Z" fill="white"/>
<path d="M74.8933 39.6092H72.5621V40.1017H74.8933V39.6092Z" fill="white"/>
<path d="M74.8933 65.8368H72.5621V66.3293H74.8933V65.8368Z" fill="white"/>
</svg>
